<svg width="147" height="72" viewBox="0 0 147 72" fill="none" xmlns="http://www.w3.org/2000/svg">
<path d="M6.59131 33.4302C6.00968 33.4302 5.53662 32.9571 5.53662 32.3755V4.46875C5.53662 3.88712 6.00968 3.41406 6.59131 3.41406H34.4979C35.0795 3.41406 35.5526 3.88712 35.5526 4.46875V32.3754C35.5526 32.957 35.0795 33.43 34.4979 33.43L6.59131 33.4302Z" fill="#2DD2E3"/>
<path d="M13.4849 33.4302H6.59131C6.00968 33.4302 5.53662 32.9571 5.53662 32.3755V4.46875C5.53662 3.88712 6.00968 3.41406 6.59131 3.41406H13.4849C12.9033 3.41406 12.4302 3.88712 12.4302 4.46875V32.3754C12.4302 32.957 12.9033 33.4302 13.4849 33.4302Z" fill="#00C8DE"/>
<path d="M34.4979 4.46875V32.3754H6.59131V4.46875H34.4979ZM34.4979 2.35938H6.59131C5.42637 2.35938 4.48193 3.30381 4.48193 4.46875V32.3754C4.48193 33.5403 5.42637 34.4847 6.59131 34.4847H34.4979C35.6629 34.4847 36.6073 33.5403 36.6073 32.3754V4.46875C36.6073 3.30367 35.6629 2.35938 34.4979 2.35938Z" fill="#87E0EC"/>
<path d="M41.7207 33.4302C41.1391 33.4302 40.666 32.9571 40.666 32.3755V8.6875C40.666 8.10587 41.1391 7.63281 41.7207 7.63281H65.4086C65.9902 7.63281 66.4632 8.10587 66.4632 8.6875V32.3754C66.4632 32.957 65.9902 33.43 65.4086 33.43L41.7207 33.4302Z" fill="#FF5E95"/>
<path d="M47.8124 33.4302H41.7207C41.1391 33.4302 40.666 32.9571 40.666 32.3755V8.6875C40.666 8.10587 41.1391 7.63281 41.7207 7.63281H47.8124C47.2308 7.63281 46.7578 8.10587 46.7578 8.6875V32.3754C46.7578 32.957 47.2308 33.4302 47.8124 33.4302Z" fill="#FF3980"/>
<path d="M65.4086 8.6875V32.3754H41.7207V8.6875H65.4086ZM65.4086 6.57812H41.7207C40.5558 6.57812 39.6113 7.52256 39.6113 8.6875V32.3754C39.6113 33.5403 40.5558 34.4847 41.7207 34.4847H65.4086C66.5735 34.4847 67.5179 33.5403 67.5179 32.3754V8.6875C67.5179 7.52242 66.5735 6.57812 65.4086 6.57812Z" fill="#FFA2C3"/>
<path d="M37.502 68.5864C36.9203 68.5864 36.4473 68.1134 36.4473 67.5317V39.625C36.4473 39.0434 36.9203 38.5703 37.502 38.5703H65.4086C65.9902 38.5703 66.4632 39.0434 66.4632 39.625V67.5316C66.4632 68.1132 65.9902 68.5863 65.4086 68.5863H37.502V68.5864Z" fill="#4BCD5C"/>
<path d="M43.8211 68.5864H37.502C36.9203 68.5864 36.4473 68.1134 36.4473 67.5317V39.625C36.4473 39.0434 36.9203 38.5703 37.502 38.5703H43.8211C43.2395 38.5703 42.7664 39.0434 42.7664 39.625V67.5316C42.7664 68.1132 43.2395 68.5864 43.8211 68.5864Z" fill="#00C53B"/>
<path d="M65.4086 37.5156H37.502C36.337 37.5156 35.3926 38.4601 35.3926 39.625V67.5316C35.3926 68.6965 36.337 69.641 37.502 69.641H65.4086C66.5735 69.641 67.5179 68.6965 67.5179 67.5316V39.625C67.5179 38.4599 66.5735 37.5156 65.4086 37.5156ZM65.4086 67.5315H37.502V39.625H65.4086V67.5315Z" fill="#AFE6AF"/>
<path d="M31.3339 40.5202V62.4175C31.3339 63.4944 30.4609 64.3674 29.3839 64.3674H14.2621C13.9155 64.0961 13.574 63.8188 13.2378 63.5353C13.1503 63.4615 12.6333 63.3874 12.5465 63.3127C12.5362 63.304 12.5261 63.2951 12.5158 63.2864C12.3281 63.1247 12.1421 62.3528 11.9578 62.1873C9.48396 59.9661 7.31946 57.4075 5.53662 54.5836V40.5202C5.53662 39.4433 6.40962 38.5703 7.48653 38.5703H29.3838C30.4609 38.5703 31.3339 39.4433 31.3339 40.5202Z" fill="#FFB509"/>
<path d="M12.3122 40.5202V62.4175C12.3122 62.7297 12.3856 63.0247 12.516 63.2863C10.2864 61.3656 8.29484 59.1765 6.59131 56.7689C6.46967 56.597 6.34957 55.8874 6.23089 55.7133C5.99351 55.365 5.76204 55.0122 5.53662 54.6553V40.5202C5.53662 39.4433 6.40962 38.5703 7.48653 38.5703H14.262C13.1852 38.5703 12.3122 39.4433 12.3122 40.5202Z" fill="#FF9F00"/>
<path d="M32.3885 39.625V63.3129C32.3885 64.4778 31.4441 65.4222 30.2792 65.4222H15.25C14.315 64.7616 13.4129 64.0575 12.5465 63.3129H30.2792V39.625H6.59131V56.769C5.82898 55.6915 5.12431 54.5702 4.48193 53.4098V39.625C4.48193 38.4601 5.42637 37.5156 6.59131 37.5156H30.2792C31.4441 37.5156 32.3885 38.4599 32.3885 39.625Z" fill="#FFCD6B"/>
<path d="M19.5117 12.3164C19.5117 11.7274 19.9891 11.25 20.5781 11.25C21.167 11.25 21.6444 11.7274 21.6444 12.3164C21.6444 12.9053 21.167 13.3827 20.5781 13.3827C19.9891 13.3829 19.5117 12.9053 19.5117 12.3164ZM20.5781 24.2021C21.167 24.2021 21.6444 23.7247 21.6444 23.1358C21.6444 22.5468 21.167 22.0694 20.5781 22.0694C19.9891 22.0694 19.5117 22.5468 19.5117 23.1358C19.5117 23.7247 19.9891 24.2021 20.5781 24.2021ZM28.5 16.6714H12.6562C12.0738 16.6714 11.6016 17.1436 11.6016 17.7261C11.6016 18.3085 12.0738 18.7807 12.6562 18.7807H28.5C29.0825 18.7807 29.5547 18.3085 29.5547 17.7261C29.5547 17.1436 29.0825 16.6714 28.5 16.6714ZM59.5939 20.0391H47.8125C47.2299 20.0391 46.7578 20.5113 46.7578 21.0937C46.7578 21.6762 47.2299 22.1484 47.8125 22.1484H59.5939C60.1765 22.1484 60.6486 21.6762 60.6486 21.0937C60.6486 20.5113 60.1765 20.0391 59.5939 20.0391ZM25.3125 50.1982H20.1143V45C20.1143 44.4175 19.6421 43.9453 19.0596 43.9453C18.4771 43.9453 18.0049 44.4175 18.0049 45V50.1982H12.6562C12.0738 50.1982 11.6016 50.6704 11.6016 51.2529C11.6016 51.8354 12.0738 52.3076 12.6562 52.3076H18.0049V57.6562C18.0049 58.2387 18.4771 58.7109 19.0596 58.7109C19.6421 58.7109 20.1143 58.2387 20.1143 57.6562V52.3076H25.3125C25.895 52.3076 26.3672 51.8354 26.3672 51.2529C26.3672 50.6704 25.895 50.1982 25.3125 50.1982ZM56.6757 48.4109C56.2636 47.999 55.596 47.999 55.1841 48.4109L51.5084 52.0865L47.7263 48.3044C47.3143 47.8925 46.6466 47.8925 46.2347 48.3044C45.8228 48.7163 45.8228 49.3841 46.2347 49.7959L50.0168 53.5781L46.2347 57.3602C45.8228 57.7721 45.8228 58.4399 46.2347 58.8517C46.4407 59.0576 46.7107 59.1607 46.9806 59.1607C47.2504 59.1607 47.5204 59.0577 47.7264 58.8517L51.5085 55.0696L55.1842 58.7452C55.3902 58.9511 55.6602 59.0542 55.9301 59.0542C56.1999 59.0542 56.4699 58.9513 56.6759 58.7452C57.0878 58.3334 57.0878 57.6655 56.6759 57.2538L53 53.5781L56.6757 49.9025C57.0876 49.4906 57.0876 48.8227 56.6757 48.4109Z" fill="white"/>
<path d="M100.024 67.192C99.16 67.192 98.3547 67.0373 97.608 66.728C96.872 66.4187 96.2213 65.9867 95.656 65.432C95.1013 64.8773 94.664 64.2267 94.344 63.48C94.0347 62.7333 93.88 61.9173 93.88 61.032C93.88 60.1467 94.0347 59.3307 94.344 58.584C94.664 57.8267 95.1013 57.176 95.656 56.632C96.2107 56.0773 96.8613 55.6507 97.608 55.352C98.3547 55.0427 99.16 54.888 100.024 54.888C100.899 54.888 101.704 55.0427 102.44 55.352C103.187 55.6507 103.837 56.0773 104.392 56.632C104.957 57.1867 105.395 57.8373 105.704 58.584C106.013 59.3307 106.168 60.1467 106.168 61.032C106.168 61.9173 106.008 62.7333 105.688 63.48C105.379 64.2267 104.947 64.8773 104.392 65.432C103.837 65.9867 103.187 66.4187 102.44 66.728C101.693 67.0373 100.888 67.192 100.024 67.192ZM100.024 65.464C100.643 65.464 101.208 65.352 101.72 65.128C102.243 64.904 102.696 64.5947 103.08 64.2C103.464 63.7947 103.763 63.3253 103.976 62.792C104.189 62.248 104.296 61.6613 104.296 61.032C104.296 60.4027 104.189 59.8213 103.976 59.288C103.763 58.7547 103.464 58.2853 103.08 57.88C102.696 57.4747 102.243 57.16 101.72 56.936C101.208 56.712 100.643 56.6 100.024 56.6C99.4053 56.6 98.8347 56.712 98.312 56.936C97.8 57.16 97.352 57.4747 96.968 57.88C96.584 58.2853 96.2853 58.7547 96.072 59.288C95.8693 59.8213 95.768 60.4027 95.768 61.032C95.768 61.6613 95.8693 62.248 96.072 62.792C96.2853 63.3253 96.584 63.7947 96.968 64.2C97.352 64.5947 97.8053 64.904 98.328 65.128C98.8507 65.352 99.416 65.464 100.024 65.464ZM103.016 68.44L99.112 62.232H101.128L105.048 68.44H103.016ZM110.711 67.192C110.06 67.192 109.49 67.048 108.999 66.76C108.508 66.4613 108.124 66.0507 107.847 65.528C107.58 64.9947 107.447 64.3813 107.447 63.688V58.344H109.255V63.528C109.255 63.9227 109.335 64.2693 109.495 64.568C109.655 64.8667 109.879 65.1013 110.167 65.272C110.455 65.432 110.786 65.512 111.159 65.512C111.543 65.512 111.879 65.4267 112.167 65.256C112.455 65.0853 112.679 64.8453 112.839 64.536C113.01 64.2267 113.095 63.864 113.095 63.448V58.344H114.887V67H113.175V65.304L113.367 65.528C113.164 66.0613 112.828 66.472 112.359 66.76C111.89 67.048 111.34 67.192 110.711 67.192ZM116.518 67V58.344H118.326V67H116.518ZM116.518 57.16V55.08H118.326V57.16H116.518ZM119.176 67V65.512L124.264 59.352L124.552 59.976H119.416V58.344H126.152V59.816L121.128 65.992L120.84 65.352H126.168V67H119.176Z" fill="#FFB300"/>
<path d="M72 61.2507V13.7559C72 11.9795 72.9779 10.3491 74.5336 9.53511C76.0896 8.7211 77.9652 8.85563 79.3907 9.88524L109.562 31.6706L139.6 9.8854C141.028 8.85109 142.904 8.71201 144.462 9.52601C146.02 10.3398 147 11.9701 147 13.7489V61.2505C147 63.8734 144.905 66 142.321 66H132.963V56.501H137.642V22.9788L112.289 41.3668C110.665 42.5449 108.483 42.5472 106.857 41.3738L81.3579 22.9626V56.501H86.0625V66H76.679C74.0951 66 72.0002 63.8734 72 61.2507Z" fill="white"/>
</svg>
