<svg width="19" height="14" viewBox="0 0 19 14" fill="none" xmlns="http://www.w3.org/2000/svg">
<path d="M17.2073 6.59491H2.80026L7.13426 2.25891C7.21043 2.18288 7.27087 2.09258 7.31214 1.99319C7.35341 1.89379 7.3747 1.78724 7.3748 1.67962C7.37489 1.572 7.35378 1.46541 7.31268 1.36594C7.27158 1.26648 7.2113 1.17608 7.13526 1.09991C7.05922 1.02375 6.96893 0.963301 6.86954 0.92203C6.77014 0.880758 6.66359 0.859468 6.55597 0.859375C6.44834 0.859282 6.34176 0.880389 6.24229 0.921489C6.14282 0.962588 6.05243 1.02288 5.97626 1.09891L0.240259 6.83491C0.164094 6.91098 0.103671 7.00131 0.0624455 7.10075C0.0212197 7.20018 0 7.30677 0 7.41441C0 7.52206 0.0212197 7.62864 0.0624455 7.72808C0.103671 7.82751 0.164094 7.91785 0.240259 7.99391L5.97626 13.7289C6.12995 13.8826 6.3384 13.9689 6.55576 13.9689C6.77311 13.9689 6.98157 13.8826 7.13526 13.7289C7.28895 13.5752 7.3753 13.3668 7.3753 13.1494C7.3753 12.9321 7.28895 12.7236 7.13526 12.5699L2.80026 8.23291H17.2103C17.4276 8.23291 17.636 8.14657 17.7897 7.99289C17.9434 7.8392 18.0298 7.63076 18.0298 7.41341C18.0298 7.19607 17.9434 6.98762 17.7897 6.83394C17.636 6.68025 17.4276 6.59391 17.2103 6.59391L17.2073 6.59491Z" fill="#3A3A3A"/>
</svg>
