<svg width="33" height="33" viewBox="0 0 33 33" fill="none" xmlns="http://www.w3.org/2000/svg">
<g clip-path="url(#clip0_1_1278)">
<path d="M16.5 0C7.43145 0 0 7.43145 0 16.5C0 25.5686 7.43145 33 16.5 33C25.5686 33 33 25.5686 33 16.5C33 7.43145 25.5686 0 16.5 0Z" fill="#FF3636"/>
<path d="M33 16.5C33 25.5686 25.5686 33 16.5 33V0C25.5686 0 33 7.43145 33 16.5Z" fill="#F40000"/>
<path d="M19.2265 16.5L24.6986 21.9721L21.9723 24.6984L16.5002 19.2263L11.0281 24.6984L8.30176 21.9721L13.7739 16.5L8.30176 11.0278L11.0281 8.30151L16.5002 13.7736L21.9723 8.30151L24.6986 11.0278L19.2265 16.5Z" fill="#E7E7E7"/>
<path d="M19.2263 16.5L24.6984 21.9721L21.9721 24.6984L16.5 19.2263V13.7736L21.9721 8.30151L24.6984 11.0278L19.2263 16.5Z" fill="#D3D3D8"/>
</g>
<defs>
<clipPath id="clip0_1_1278">
<rect width="33" height="33" fill="white"/>
</clipPath>
</defs>
</svg>
