<svg width="33" height="33" viewBox="0 0 33 33" fill="none" xmlns="http://www.w3.org/2000/svg">
<g clip-path="url(#clip0_1_1257)">
<path d="M16.5005 33.0001C25.6103 33.0001 32.9952 25.6127 32.9952 16.5C32.9952 7.38732 25.6103 0 16.5005 0C7.39078 0 0.00585938 7.38732 0.00585938 16.5C0.00585938 25.6127 7.39078 33.0001 16.5005 33.0001Z" fill="#00DF76"/>
<path d="M16.4999 0C16.4924 0 16.485 0.000257781 16.4775 0.000257781V32.9997C16.485 32.9997 16.4924 33 16.4999 33C25.6097 33 32.9946 25.6127 32.9946 16.5C32.9946 7.38722 25.6097 0 16.4999 0Z" fill="#00AB5E"/>
<path d="M7.1743 16.8279L13.8459 23.4995C14.1369 23.7905 14.6087 23.7905 14.8997 23.4995L25.8526 12.5466C26.1435 12.2556 26.1435 11.7838 25.8526 11.4928L23.859 9.49923C23.568 9.20826 23.0962 9.20826 22.8052 9.49923L14.8387 17.4656C14.5477 17.7566 14.0759 17.7566 13.785 17.4656L10.2149 13.8956C9.92965 13.6103 9.46919 13.6039 9.1761 13.881L7.18925 15.7595C6.8843 16.0479 6.87753 16.5311 7.1743 16.8279Z" fill="#FFF5F5"/>
<path d="M23.859 9.49899C23.568 9.20802 23.0962 9.20802 22.8052 9.49899L16.4775 15.8267V21.9214L25.8526 12.5464C26.1435 12.2554 26.1435 11.7836 25.8526 11.4926L23.859 9.49899Z" fill="#DFEBF1"/>
</g>
<defs>
<clipPath id="clip0_1_1257">
<rect width="33" height="33" fill="white"/>
</clipPath>
</defs>
</svg>
