<svg width="34" height="34" viewBox="0 0 34 34" fill="none" xmlns="http://www.w3.org/2000/svg">
<path d="M17.0391 33.084C26.1518 33.084 33.5391 25.6967 33.5391 16.584C33.5391 7.47129 26.1518 0.0839844 17.0391 0.0839844C7.92636 0.0839844 0.539062 7.47129 0.539062 16.584C0.539062 25.6967 7.92636 33.084 17.0391 33.084Z" fill="white"/>
<path d="M25.3702 10.35C25.2865 10.2653 25.1868 10.1981 25.077 10.1523C24.9671 10.1064 24.8492 10.0828 24.7302 10.0828C24.6111 10.0828 24.4933 10.1064 24.3834 10.1523C24.2736 10.1981 24.1739 10.2653 24.0902 10.35L13.2502 21.187L9.08318 17.023C8.91344 16.8532 8.68323 16.7579 8.44318 16.7579C8.20314 16.7579 7.97292 16.8532 7.80318 17.023C7.63344 17.1927 7.53809 17.4229 7.53809 17.663C7.53809 17.903 7.63344 18.1333 7.80318 18.303L12.6102 23.11C12.6942 23.1941 12.794 23.2607 12.9038 23.3062C13.0136 23.3517 13.1313 23.3751 13.2502 23.3751C13.369 23.3751 13.4867 23.3517 13.5966 23.3062C13.7064 23.2607 13.8061 23.1941 13.8902 23.11L25.3702 11.63C25.4548 11.5463 25.5221 11.4466 25.5679 11.3368C25.6138 11.2269 25.6374 11.109 25.6374 10.99C25.6374 10.8709 25.6138 10.7531 25.5679 10.6432C25.5221 10.5334 25.4548 10.4337 25.3702 10.35Z" fill="#FE6C6C"/>
</svg>
