<svg width="34" height="34" viewBox="0 0 34 34" fill="none" xmlns="http://www.w3.org/2000/svg">
<path d="M17.0391 33.084C26.1518 33.084 33.5391 25.6967 33.5391 16.584C33.5391 7.47129 26.1518 0.0839844 17.0391 0.0839844C7.92636 0.0839844 0.539062 7.47129 0.539062 16.584C0.539062 25.6967 7.92636 33.084 17.0391 33.084Z" fill="white"/>
<path d="M18.2297 16.5841L23.2917 11.5221C23.4497 11.3642 23.5384 11.15 23.5384 10.9266C23.5384 10.7033 23.4497 10.4891 23.2917 10.3311C23.1338 10.1732 22.9196 10.0845 22.6962 10.0845C22.4729 10.0845 22.2587 10.1732 22.1007 10.3311L17.0387 15.3931L11.9767 10.3311C11.8188 10.1732 11.6046 10.0845 11.3812 10.0845C11.1579 10.0845 10.9437 10.1732 10.7857 10.3311C10.6278 10.4891 10.5391 10.7033 10.5391 10.9266C10.5391 11.15 10.6278 11.3642 10.7857 11.5221L15.8477 16.5841L10.7857 21.6481C10.6278 21.8061 10.5391 22.0203 10.5391 22.2436C10.5391 22.467 10.6278 22.6812 10.7857 22.8391C10.9437 22.9971 11.1579 23.0858 11.3812 23.0858C11.6046 23.0858 11.8188 22.9971 11.9767 22.8391L17.0387 17.7751L22.1007 22.8371C22.2602 22.9858 22.4712 23.0669 22.6893 23.0631C22.9073 23.0594 23.1154 22.9712 23.2698 22.8171C23.4241 22.6631 23.5126 22.4551 23.5167 22.2371C23.5208 22.019 23.4402 21.8079 23.2917 21.6481L18.2297 16.5841Z" fill="#FE6C6C"/>
</svg>
