<svg width="34" height="33" viewBox="0 0 34 33" fill="none" xmlns="http://www.w3.org/2000/svg">
<path d="M16.5391 33C25.6518 33 33.0391 25.6127 33.0391 16.5C33.0391 7.3873 25.6518 0 16.5391 0C7.42636 0 0.0390625 7.3873 0.0390625 16.5C0.0390625 25.6127 7.42636 33 16.5391 33Z" fill="white"/>
<path d="M23.2316 10.184C23.1734 10.1256 23.1042 10.0793 23.028 10.0477C22.9518 10.016 22.8701 9.99976 22.7876 9.99976C22.7051 9.99976 22.6235 10.016 22.5473 10.0477C22.4711 10.0793 22.4019 10.1256 22.3436 10.184L10.2266 22.302C10.1667 22.36 10.1189 22.4293 10.086 22.5059C10.0532 22.5825 10.0359 22.6649 10.0352 22.7482C10.0345 22.8316 10.0504 22.9143 10.082 22.9914C10.1135 23.0686 10.1601 23.1386 10.2191 23.1976C10.278 23.2565 10.3481 23.3032 10.4253 23.3347C10.5024 23.3663 10.5851 23.3822 10.6684 23.3815C10.7518 23.3808 10.8342 23.3635 10.9108 23.3306C10.9874 23.2978 11.0567 23.25 11.1146 23.19L23.2316 11.072C23.2901 11.0138 23.3364 10.9446 23.368 10.8684C23.3997 10.7922 23.4159 10.7105 23.4159 10.628C23.4159 10.5456 23.3997 10.4639 23.368 10.3877C23.3364 10.3115 23.2901 10.2423 23.2316 10.184Z" fill="#FD6C6C"/>
<path d="M13.0211 10.0042C12.4311 10.0042 11.8543 10.1791 11.3637 10.5069C10.8731 10.8348 10.4908 11.3007 10.2651 11.8458C10.0393 12.391 9.9803 12.9908 10.0955 13.5695C10.2107 14.1481 10.4949 14.6797 10.9121 15.0968C11.3294 15.5139 11.861 15.798 12.4397 15.913C13.0185 16.0279 13.6183 15.9687 14.1633 15.7428C14.7084 15.5169 15.1742 15.1344 15.5018 14.6437C15.8295 14.153 16.0043 13.5762 16.0041 12.9862C16.003 12.1954 15.6884 11.4374 15.1292 10.8784C14.5699 10.3193 13.8118 10.0049 13.0211 10.0042ZM13.0211 14.7132C12.6795 14.7132 12.3456 14.6119 12.0616 14.4221C11.7776 14.2323 11.5563 13.9626 11.4255 13.647C11.2948 13.3315 11.2606 12.9842 11.3273 12.6492C11.3939 12.3142 11.5584 12.0065 11.7999 11.765C12.0414 11.5235 12.3492 11.359 12.6842 11.2923C13.0192 11.2257 13.3664 11.2599 13.682 11.3906C13.9975 11.5213 14.2673 11.7427 14.457 12.0267C14.6468 12.3107 14.7481 12.6446 14.7481 12.9862C14.7476 13.444 14.5654 13.883 14.2417 14.2067C13.9179 14.5305 13.479 14.7126 13.0211 14.7132Z" fill="#FD6C6C"/>
<path d="M20.4332 17.4121C19.8434 17.4121 19.2669 17.587 18.7765 17.9147C18.2861 18.2423 17.9039 18.708 17.6782 19.2529C17.4525 19.7978 17.3934 20.3974 17.5085 20.9759C17.6235 21.5543 17.9076 22.0856 18.3246 22.5027C18.7416 22.9197 19.273 23.2038 19.8514 23.3188C20.4299 23.4339 21.0295 23.3748 21.5744 23.1491C22.1192 22.9234 22.5849 22.5412 22.9126 22.0508C23.2403 21.5604 23.4152 20.9839 23.4152 20.3941C23.4141 19.6036 23.0996 18.8457 22.5406 18.2867C21.9816 17.7277 21.2237 17.4132 20.4332 17.4121ZM20.4332 22.1211C20.0916 22.1211 19.7577 22.0198 19.4737 21.83C19.1897 21.6403 18.9683 21.3706 18.8376 21.055C18.7069 20.7394 18.6727 20.3922 18.7394 20.0572C18.806 19.7222 18.9705 19.4145 19.212 19.1729C19.4535 18.9314 19.7613 18.7669 20.0963 18.7003C20.4313 18.6337 20.7785 18.6678 21.0941 18.7986C21.4096 18.9293 21.6794 19.1506 21.8691 19.4346C22.0589 19.7186 22.1602 20.0525 22.1602 20.3941C22.1586 20.8513 21.976 21.2892 21.6524 21.6121C21.3287 21.935 20.8904 22.1166 20.4332 22.1171V22.1211Z" fill="#FD6C6C"/>
</svg>
