<svg width="21" height="21" viewBox="0 0 21 21" fill="none" xmlns="http://www.w3.org/2000/svg">
<g clip-path="url(#clip0_382_759)">
<path d="M2.54909 12.9332C3.58953 16.3376 6.7566 18.8125 10.5 18.8125C15.0909 18.8125 18.8125 15.0909 18.8125 10.5C18.8125 5.90913 15.0909 2.1875 10.5 2.1875C7.01627 2.1875 4.03155 4.33075 2.79548 7.3731C2.78644 7.39534 2.77632 7.41682 2.76521 7.4375H6.34375C6.70619 7.4375 7 7.73131 7 8.09375C7 8.45619 6.70619 8.75 6.34375 8.75H1.53125C1.16881 8.75 0.875 8.45619 0.875 8.09375V3.0625C0.875 2.70006 1.16881 2.40625 1.53125 2.40625C1.89369 2.40625 2.1875 2.70006 2.1875 3.0625V5.64509C3.85722 2.79231 6.9541 0.875 10.5 0.875C15.8157 0.875 20.125 5.18426 20.125 10.5C20.125 15.8157 15.8157 20.125 10.5 20.125C6.16341 20.125 2.49828 17.2576 1.29391 13.3168C1.18797 12.9702 1.38308 12.6033 1.7297 12.4974C2.07631 12.3915 2.44316 12.5866 2.54909 12.9332Z" fill="white"/>
</g>
<defs>
<clipPath id="clip0_382_759">
<rect width="21" height="21" fill="white"/>
</clipPath>
</defs>
</svg>
