<svg width="24" height="31" viewBox="0 0 24 31" fill="none" xmlns="http://www.w3.org/2000/svg">
<path d="M22.6815 0.0105122H16.4815C16.0112 0.0105122 15.5603 0.19731 15.2278 0.529812C14.8953 0.862314 14.7085 1.31328 14.7085 1.78351V2.66951C14.7079 2.90433 14.6144 3.12938 14.4484 3.29543C14.2823 3.46147 14.0573 3.55498 13.8225 3.55551H10.2725C10.0376 3.55498 9.81259 3.46147 9.64655 3.29543C9.4805 3.12938 9.38699 2.90433 9.38646 2.66951V1.78351C9.38646 1.55068 9.3406 1.32012 9.2515 1.10501C9.1624 0.889904 9.0318 0.69445 8.86716 0.529812C8.70253 0.365174 8.50707 0.234575 8.29196 0.145474C8.07685 0.0563722 7.8463 0.0105122 7.61346 0.0105122H1.41346C1.29669 0.00985317 1.18094 0.0322839 1.07287 0.0765144C0.964796 0.120745 0.866533 0.185903 0.78373 0.268241C0.700927 0.35058 0.635216 0.448474 0.590378 0.556296C0.54554 0.664117 0.522459 0.779739 0.522461 0.896512V29.3795C0.522461 29.4959 0.545379 29.6111 0.589905 29.7186C0.63443 29.8261 0.699691 29.9237 0.781963 30.006C0.864236 30.0883 0.96191 30.1535 1.0694 30.1981C1.1769 30.2426 1.29211 30.2655 1.40846 30.2655H22.6815C22.9164 30.2655 23.1418 30.1722 23.308 30.006C23.4741 29.8399 23.5675 29.6145 23.5675 29.3795V0.896512C23.5675 0.66153 23.4741 0.436173 23.308 0.270016C23.1418 0.103858 22.9164 0.0105122 22.6815 0.0105122Z" fill="url(#paint0_linear_383_1475)"/>
<path d="M10.267 5.3285H13.812C14.517 5.3277 15.1928 5.04731 15.6913 4.54882C16.1898 4.05033 16.4702 3.37446 16.471 2.6695V0.010498H7.607V2.6695C7.6078 3.37464 7.88833 4.05066 8.38703 4.54917C8.88574 5.04769 9.56186 5.32797 10.267 5.3285ZM15.326 9.6185C15.4922 9.45234 15.5855 9.22698 15.5855 8.992C15.5855 8.75701 15.4922 8.53166 15.326 8.3655C15.1598 8.19934 14.9345 8.10599 14.6995 8.10599C14.4645 8.10599 14.2392 8.19934 14.073 8.3655L11.154 11.2845L10.008 10.1385C9.92573 10.0562 9.82805 9.99096 9.72056 9.94644C9.61306 9.90191 9.49785 9.87899 9.3815 9.87899C9.26515 9.87899 9.14994 9.90191 9.04244 9.94644C8.93495 9.99096 8.83728 10.0562 8.755 10.1385C8.58885 10.3047 8.4955 10.53 8.4955 10.765C8.4955 10.8814 8.51842 10.9966 8.56294 11.1041C8.60747 11.2116 8.67273 11.3092 8.755 11.3915L10.528 13.1645C10.6103 13.2468 10.7079 13.312 10.8154 13.3566C10.9229 13.4011 11.0381 13.424 11.1545 13.424C11.2708 13.424 11.3861 13.4011 11.4936 13.3566C11.6011 13.312 11.6987 13.2468 11.781 13.1645L15.326 9.6185ZM11.154 16.9695C11.154 17.2045 11.2473 17.4298 11.4135 17.596C11.5797 17.7622 11.805 17.8555 12.04 17.8555H19.131C19.3661 17.8555 19.5916 17.7621 19.7579 17.5958C19.9241 17.4296 20.0175 17.2041 20.0175 16.969C20.0175 16.7339 19.9241 16.5084 19.7579 16.3421C19.5916 16.1759 19.3661 16.0825 19.131 16.0825H12.04C11.8055 16.0836 11.5811 16.1775 11.4157 16.3438C11.2504 16.51 11.1577 16.735 11.158 16.9695H11.154ZM19.131 19.6285H4.953C4.71789 19.6285 4.4924 19.7219 4.32615 19.8881C4.1599 20.0544 4.0665 20.2799 4.0665 20.515C4.0665 20.7501 4.1599 20.9756 4.32615 21.1418C4.4924 21.3081 4.71789 21.4015 4.953 21.4015H19.135C19.3701 21.4015 19.5956 21.3081 19.7619 21.1418C19.9281 20.9756 20.0215 20.7501 20.0215 20.515C20.0215 20.2799 19.9281 20.0544 19.7619 19.8881C19.5956 19.7219 19.3701 19.6285 19.135 19.6285H19.131ZM12.04 23.1735H4.94901C4.71389 23.1735 4.4884 23.2669 4.32215 23.4331C4.1559 23.5994 4.0625 23.8249 4.0625 24.06C4.0625 24.2951 4.1559 24.5206 4.32215 24.6868C4.4884 24.8531 4.71389 24.9465 4.94901 24.9465H12.04C12.2751 24.9465 12.5006 24.8531 12.6669 24.6868C12.8331 24.5206 12.9265 24.2951 12.9265 24.06C12.9265 23.8249 12.8331 23.5994 12.6669 23.4331C12.5006 23.2669 12.2751 23.1735 12.04 23.1735ZM4.94901 17.8555H8.495C8.73012 17.8555 8.9556 17.7621 9.12185 17.5958C9.2881 17.4296 9.3815 17.2041 9.3815 16.969C9.3815 16.7339 9.2881 16.5084 9.12185 16.3421C8.9556 16.1759 8.73012 16.0825 8.495 16.0825H4.94901C4.71389 16.0825 4.4884 16.1759 4.32215 16.3421C4.1559 16.5084 4.0625 16.7339 4.0625 16.969C4.0625 17.2041 4.1559 17.4296 4.32215 17.5958C4.4884 17.7621 4.71389 17.8555 4.94901 17.8555ZM19.131 23.1735H15.585C15.3499 23.1735 15.1244 23.2669 14.9581 23.4331C14.7919 23.5994 14.6985 23.8249 14.6985 24.06C14.6985 24.2951 14.7919 24.5206 14.9581 24.6868C15.1244 24.8531 15.3499 24.9465 15.585 24.9465H19.131C19.3661 24.9465 19.5916 24.8531 19.7579 24.6868C19.9241 24.5206 20.0175 24.2951 20.0175 24.06C20.0175 23.8249 19.9241 23.5994 19.7579 23.4331C19.5916 23.2669 19.3661 23.1735 19.131 23.1735Z" fill="url(#paint1_linear_383_1475)"/>
<defs>
<linearGradient id="paint0_linear_383_1475" x1="12.045" y1="30.2655" x2="12.045" y2="0.010498" gradientUnits="userSpaceOnUse">
<stop stop-color="#A93AFF"/>
<stop offset="1" stop-color="#FF81FF"/>
</linearGradient>
<linearGradient id="paint1_linear_383_1475" x1="12.042" y1="24.9465" x2="12.042" y2="0.010498" gradientUnits="userSpaceOnUse">
<stop stop-color="#FFBEF9"/>
<stop offset="1" stop-color="#FFF1FF"/>
</linearGradient>
</defs>
</svg>
