<svg width="24" height="25" viewBox="0 0 24 25" fill="none" xmlns="http://www.w3.org/2000/svg">
<path d="M21.0925 24.0105H2.99847C2.34195 24.01 1.71248 23.7489 1.24826 23.2847C0.784031 22.8205 0.522997 22.191 0.522468 21.5345V9.83449C0.522073 9.74559 0.53924 9.6575 0.572985 9.57526C0.60673 9.49301 0.656388 9.41825 0.719107 9.35526C0.781826 9.29226 0.856371 9.24227 0.938461 9.20816C1.02055 9.17405 1.10857 9.15649 1.19747 9.15649H22.8975C23.0765 9.15649 23.2482 9.22762 23.3748 9.3542C23.5014 9.48079 23.5725 9.65248 23.5725 9.8315V21.5315C23.5726 21.8572 23.5085 22.1797 23.3839 22.4806C23.2593 22.7815 23.0767 23.0548 22.8463 23.2851C22.616 23.5153 22.3425 23.6979 22.0416 23.8223C21.7407 23.9468 21.4181 24.0108 21.0925 24.0105Z" fill="#F5F5FF"/>
<path d="M22.8939 9.15649H12.0459V24.0105H21.0929C21.7494 24.01 22.3789 23.7489 22.8431 23.2847C23.3073 22.8205 23.5684 22.191 23.5689 21.5345V9.83449C23.5693 9.74559 23.5521 9.6575 23.5184 9.57526C23.4846 9.49301 23.435 9.41825 23.3723 9.35526C23.3095 9.29226 23.235 9.24227 23.1529 9.20816C23.0708 9.17405 22.9828 9.15649 22.8939 9.15649Z" fill="#E2E7FA"/>
<path d="M21.0925 3.66553H2.99846C2.34195 3.66606 1.71247 3.92709 1.24825 4.39132C0.784024 4.85554 0.522991 5.48502 0.522461 6.14153V9.83253H23.5685V6.14153C23.5679 5.48502 23.3069 4.85554 22.8427 4.39132C22.3784 3.92709 21.749 3.66606 21.0925 3.66553Z" fill="#EF5CA2"/>
<path d="M21.0929 3.66553H12.0459V9.83253H23.5689V6.14153C23.5684 5.48502 23.3073 4.85554 22.8431 4.39132C22.3789 3.92709 21.7494 3.66606 21.0929 3.66553Z" fill="#EA1C81"/>
<path d="M17.4467 0.9646C17.0886 0.9646 16.7453 1.10683 16.4921 1.36001C16.2389 1.61318 16.0967 1.95656 16.0967 2.3146V6.3646C16.0967 6.54188 16.1316 6.71743 16.1994 6.88122C16.2673 7.04501 16.3667 7.19383 16.4921 7.31919C16.6175 7.44455 16.7663 7.54399 16.9301 7.61184C17.0938 7.67968 17.2694 7.7146 17.4467 7.7146C17.624 7.7146 17.7995 7.67968 17.9633 7.61184C18.1271 7.54399 18.2759 7.44455 18.4013 7.31919C18.5266 7.19383 18.6261 7.04501 18.6939 6.88122C18.7618 6.71743 18.7967 6.54188 18.7967 6.3646V2.3146C18.7967 1.95656 18.6544 1.61318 18.4013 1.36001C18.1481 1.10683 17.8047 0.9646 17.4467 0.9646Z" fill="#FFC178"/>
<path d="M6.64395 7.7166C6.46649 7.7166 6.29078 7.68161 6.12686 7.61365C5.96294 7.54568 5.81403 7.44606 5.68865 7.32049C5.56326 7.19492 5.46386 7.04586 5.39613 6.88184C5.32841 6.71782 5.29368 6.54205 5.29395 6.3646V2.3146C5.29395 1.95656 5.43618 1.61318 5.68936 1.36001C5.94253 1.10683 6.2859 0.9646 6.64395 0.9646C7.00199 0.9646 7.34537 1.10683 7.59854 1.36001C7.85172 1.61318 7.99394 1.95656 7.99394 2.3146V6.3646C7.99421 6.54205 7.95948 6.71782 7.89176 6.88184C7.82403 7.04586 7.72464 7.19492 7.59925 7.32049C7.47387 7.44606 7.32495 7.54568 7.16104 7.61365C6.99712 7.68161 6.8214 7.7166 6.64395 7.7166Z" fill="#FFFA8C"/>
<path d="M15.1619 11.8577H13.4299C13.2508 11.8577 13.0792 11.9288 12.9526 12.0554C12.826 12.182 12.7549 12.3536 12.7549 12.5327C12.7549 12.7117 12.826 12.8834 12.9526 13.01C13.0792 13.1366 13.2508 13.2077 13.4299 13.2077H14.4869V20.6347C14.4869 20.8137 14.558 20.9854 14.6846 21.112C14.8112 21.2386 14.9829 21.3097 15.1619 21.3097C15.3409 21.3097 15.5126 21.2386 15.6392 21.112C15.7658 20.9854 15.8369 20.8137 15.8369 20.6347V12.5347C15.8371 12.4459 15.8199 12.3579 15.7861 12.2757C15.7523 12.1936 15.7026 12.119 15.6399 12.0561C15.5772 11.9932 15.5027 11.9433 15.4207 11.9092C15.3386 11.8752 15.2507 11.8577 15.1619 11.8577Z" fill="#453D81"/>
<path d="M11.8541 14.5575C11.8569 13.885 11.6085 13.2357 11.1577 12.7366C10.7069 12.2375 10.0861 11.9247 9.41678 11.8592C8.74745 11.7938 8.0778 11.9806 7.53889 12.3829C6.99999 12.7852 6.63063 13.3742 6.50311 14.0345C6.46863 14.2102 6.50538 14.3924 6.60524 14.541C6.7051 14.6897 6.85991 14.7925 7.03561 14.827C7.21132 14.8615 7.39352 14.8248 7.54214 14.7249C7.69077 14.625 7.79365 14.4702 7.82812 14.2945C7.87777 14.0434 7.99774 13.8115 8.17407 13.6259C8.35041 13.4403 8.57585 13.3087 8.82413 13.2463C9.0724 13.1839 9.3333 13.1933 9.57643 13.2734C9.81956 13.3536 10.0349 13.5011 10.1974 13.699C10.3599 13.8968 10.4629 14.1367 10.4943 14.3908C10.5257 14.6448 10.4842 14.9026 10.3748 15.134C10.2654 15.3654 10.0925 15.561 9.87616 15.698C9.65987 15.8349 9.40912 15.9076 9.15312 15.9075C8.9741 15.9075 8.80241 15.9786 8.67583 16.1052C8.54924 16.2318 8.47812 16.4035 8.47812 16.5825C8.47812 16.7615 8.54924 16.9332 8.67583 17.0598C8.80241 17.1864 8.9741 17.2575 9.15312 17.2575C9.412 17.2576 9.66538 17.3321 9.88309 17.4722C10.1008 17.6122 10.2737 17.8119 10.381 18.0475C10.4884 18.283 10.5258 18.5445 10.4888 18.8007C10.4517 19.0569 10.3418 19.2971 10.1721 19.4925C10.0024 19.688 9.78004 19.8306 9.53157 19.9033C9.2831 19.9759 9.01899 19.9756 8.77069 19.9023C8.5224 19.8291 8.3004 19.686 8.13115 19.4901C7.9619 19.2942 7.85255 19.0538 7.81612 18.7975C7.80745 18.7349 7.8031 18.6717 7.80312 18.6085C7.80312 18.4295 7.73199 18.2578 7.60541 18.1312C7.47882 18.0046 7.30713 17.9335 7.12811 17.9335C6.94909 17.9335 6.7774 18.0046 6.65082 18.1312C6.52423 18.2578 6.45313 18.4295 6.45312 18.6085C6.45312 19.3246 6.73758 20.0113 7.24393 20.5177C7.75028 21.024 8.43704 21.3085 9.15312 21.3085C9.70153 21.3082 10.2368 21.1408 10.6878 20.8287C11.1388 20.5167 11.484 20.0747 11.6776 19.5616C11.8711 19.0485 11.9039 18.4886 11.7714 17.9564C11.639 17.4242 11.3476 16.945 10.9361 16.5825C11.2244 16.3297 11.4555 16.0183 11.6138 15.6691C11.7721 15.3199 11.854 14.9409 11.8541 14.5575Z" fill="#6B61B1"/>
</svg>
