<svg width="32" height="32" viewBox="0 0 32 32" fill="none" xmlns="http://www.w3.org/2000/svg">
<path d="M15.27 0.0105099C17.6098 -0.0243455 19.9273 0.470693 22.0487 1.45854C24.1701 2.4464 26.0405 3.90145 27.5198 5.71473C28.9991 7.52801 30.0489 9.6525 30.5907 11.9291C31.1324 14.2056 31.152 16.5753 30.648 18.8605C30.196 20.8469 29.9613 22.8764 29.948 24.9135V28.8525C29.948 29.1424 29.8328 29.4204 29.6278 29.6254C29.4228 29.8304 29.1448 29.9455 28.855 29.9455H24.911C22.8739 29.9588 20.8443 30.1936 18.858 30.6455C16.7424 31.1115 14.5526 31.1289 12.4299 30.6966C10.3072 30.2642 8.29867 29.3917 6.53392 28.1353C4.76917 26.8789 3.28738 25.2666 2.18412 23.4023C1.08087 21.538 0.380663 19.4631 0.128667 17.3115C-0.12333 15.1599 0.0784822 12.9794 0.721084 10.9106C1.36369 8.84178 2.43281 6.93066 3.85948 5.30049C5.28616 3.67033 7.0387 2.35731 9.00406 1.44616C10.9694 0.535002 13.104 0.0459365 15.27 0.0105099Z" fill="url(#paint0_linear_383_1414)"/>
<path d="M10.5908 8.43854C10.5908 7.83254 11.0178 7.23921 11.8718 6.65855C12.9725 6.02697 14.233 5.72857 15.5001 5.79958C16.7672 5.87058 17.9864 6.30795 19.0098 7.05855C19.4697 7.45873 19.8355 7.95562 20.0809 8.51366C20.3264 9.0717 20.4455 9.6771 20.4298 10.2865C20.4318 10.814 20.3522 11.3385 20.1938 11.8415C20.0412 12.3284 19.8109 12.7873 19.5118 13.2005C19.2144 13.6099 18.9478 13.9495 18.7118 14.2195C18.4323 14.5333 18.1345 14.8302 17.8198 15.1085C17.4611 15.4312 17.2474 15.6272 17.1788 15.6965C16.724 16.07 16.3906 16.5702 16.2208 17.1335C16.0778 17.8651 16.0171 18.6104 16.0398 19.3555C16.0398 19.8962 15.6378 20.1662 14.8338 20.1655C14.5231 20.1959 14.213 20.1016 13.9718 19.9035C13.7694 19.6332 13.6768 19.2963 13.7128 18.9605C13.7128 16.9699 14.2211 15.5365 15.2378 14.6605C15.3504 14.5559 15.5904 14.3639 15.9578 14.0845C16.2468 13.872 16.5211 13.6401 16.7788 13.3905C17.0015 13.1574 17.2118 12.9128 17.4088 12.6575C17.6446 12.3596 17.8233 12.0205 17.9358 11.6575C18.0488 11.2885 18.1051 10.9045 18.1028 10.5185C18.1232 10.153 18.0605 9.78757 17.9195 9.44968C17.7786 9.11179 17.5629 8.8102 17.2888 8.56754C16.6451 8.07173 15.8439 7.82526 15.0328 7.87354C14.5458 7.86066 14.0613 7.94709 13.6088 8.12755C13.2896 8.24428 13.006 8.44168 12.7858 8.70055C12.6324 8.90967 12.4571 9.10176 12.2628 9.27354C12.1013 9.42981 11.8873 9.52005 11.6628 9.52654C11.3909 9.52268 11.1302 9.41831 10.9308 9.23354C10.8182 9.13491 10.7292 9.01229 10.6704 8.87469C10.6116 8.7371 10.5843 8.58805 10.5908 8.43854ZM13.3208 23.7955C13.3181 23.6041 13.3564 23.4142 13.433 23.2387C13.5095 23.0631 13.6226 22.9059 13.7648 22.7775C13.9116 22.6389 14.0843 22.5305 14.2731 22.4586C14.4618 22.3867 14.6629 22.3527 14.8648 22.3585C15.2895 22.3506 15.7023 22.4998 16.0238 22.7775C16.1762 22.8985 16.2993 23.0524 16.384 23.2276C16.4686 23.4028 16.5126 23.5949 16.5126 23.7895C16.5126 23.9841 16.4686 24.1762 16.384 24.3515C16.2993 24.5267 16.1762 24.6806 16.0238 24.8015C15.7055 25.0861 15.2916 25.24 14.8648 25.2325C14.6619 25.2382 14.4599 25.203 14.2709 25.1289C14.0819 25.0549 13.9098 24.9435 13.7648 24.8015C13.6248 24.674 13.513 24.5187 13.4366 24.3454C13.3601 24.1722 13.3207 23.9849 13.3208 23.7955Z" fill="white"/>
<defs>
<linearGradient id="paint0_linear_383_1414" x1="9.66088" y1="21.5225" x2="30.7406" y2="0.450331" gradientUnits="userSpaceOnUse">
<stop stop-color="#62E1FB"/>
<stop offset="1" stop-color="#00A2F3"/>
</linearGradient>
</defs>
</svg>
