<svg width="26" height="31" viewBox="0 0 26 31" fill="none" xmlns="http://www.w3.org/2000/svg">
<path d="M8.29588 20.6465L9.34188 21.7065C9.5266 21.8928 9.77751 21.9983 10.0398 22.0002C10.3021 22.0021 10.5545 21.9001 10.7419 21.7165L13.0279 19.4705L15.2779 21.7525C15.4626 21.9388 15.7135 22.0443 15.9758 22.0462C16.2381 22.0481 16.4905 21.9461 16.6779 21.7625L17.7409 20.7145C17.9271 20.5298 18.0327 20.2789 18.0346 20.0166C18.0365 19.7543 17.9345 19.5019 17.7509 19.3145L15.5009 17.0285L17.7839 14.7785C17.9701 14.5938 18.0757 14.3429 18.0776 14.0806C18.0795 13.8183 17.9775 13.5659 17.7939 13.3785L16.7489 12.3135C16.5642 12.1273 16.3132 12.0217 16.0509 12.0198C15.7886 12.0179 15.5362 12.1199 15.3489 12.3035L13.0619 14.5535L10.8109 12.2705C10.626 12.0844 10.375 11.979 10.1127 11.9773C9.85043 11.9756 9.59811 12.0778 9.41088 12.2615L8.34888 13.3065C8.16263 13.4912 8.05705 13.7421 8.05517 14.0045C8.0533 14.2668 8.15529 14.5192 8.33888 14.7065L10.5889 16.9885L8.31088 19.2435C8.21775 19.3346 8.1435 19.4432 8.09234 19.5631C8.04119 19.6829 8.01414 19.8116 8.01275 19.9419C8.01136 20.0722 8.03565 20.2015 8.08422 20.3224C8.1328 20.4433 8.20472 20.5534 8.29588 20.6465Z" fill="white"/>
<path d="M5.53008 9.92645L4.23008 8.62644L5.48808 7.36844L4.23008 6.10645L0.455078 9.88144L1.71308 11.1394L2.97108 9.88144L4.27108 11.1814L5.25208 10.8054L5.53008 9.92645Z" fill="#404A80"/>
<path d="M20.6035 7.38055L21.8615 8.63856L20.5615 9.93856L20.6015 11.1566L21.8185 11.1976L23.1185 9.89756L24.3765 11.1556L25.6346 9.89756L21.8595 6.12256L20.6035 7.38055Z" fill="#283366"/>
<path d="M10.377 4.45946V7.45946L11.699 7.82046L13.0399 7.14945H13.047L13.64 5.80546L13.047 4.46146L11.711 3.86646L10.377 4.45946Z" fill="#283366"/>
<path d="M15.7159 4.45946L14.3809 3.86646L13.0469 4.45946V7.14745L14.3909 7.81946L15.7169 7.46046L15.7159 4.45946Z" fill="#101040"/>
<path d="M1.48145 18.7065C1.48489 21.7721 2.70464 24.7111 4.87292 26.8782C7.04121 29.0454 9.98083 30.2636 13.0464 30.2655L13.6395 18.7065L13.0464 7.14746C9.98075 7.14905 7.04097 8.36719 4.87263 10.5344C2.70429 12.7016 1.48462 15.6408 1.48145 18.7065Z" fill="#66CCFF"/>
<path d="M24.5979 18.7065C24.5945 15.6431 23.3765 12.7061 21.211 10.5393C19.0456 8.37249 16.1093 7.15275 13.0459 7.14746V30.2645C16.1091 30.2592 19.0452 29.0396 21.2107 26.873C23.3761 24.7064 24.5942 21.7696 24.5979 18.7065Z" fill="#3399FF"/>
<path d="M9.92198 0.010498C9.34017 0.0228344 8.78635 0.26262 8.37924 0.678451C7.97213 1.09428 7.74414 1.65306 7.74414 2.235C7.74414 2.81694 7.97213 3.37571 8.37924 3.79155C8.78635 4.20738 9.34017 4.44716 9.92198 4.4595H13.046L13.639 2.2345L13.046 0.010498H9.92198Z" fill="#404A80"/>
<path d="M18.3949 2.2355C18.3949 1.64539 18.1605 1.07945 17.7432 0.662185C17.3259 0.244917 16.76 0.010498 16.1699 0.010498L13.0469 0.010498V4.4595H16.1709C16.7606 4.45923 17.3262 4.22483 17.7432 3.80781C18.1602 3.39079 18.3946 2.82526 18.3949 2.2355Z" fill="#283366"/>
<path d="M13.0459 26.7245L13.6389 18.7065L13.0459 10.6886L12.1459 8.96655C9.87041 9.1785 7.74057 10.179 6.1247 11.7951C4.50884 13.4111 3.50856 15.5411 3.29688 17.8165L3.84988 18.7065L3.29688 19.5965C3.50878 21.8718 4.50915 24.0016 6.125 25.6174C7.74085 27.2333 9.87057 28.2336 12.1459 28.4455L13.0459 26.7245Z" fill="#FFF5F5"/>
<path d="M22.2249 18.7075L22.7779 17.8175C22.5661 15.5419 21.5657 13.4118 19.9497 11.7957C18.3336 10.1797 16.2035 9.17925 13.9279 8.96753L13.0469 10.6875V26.7235L13.9299 28.4455C16.2054 28.2338 18.3353 27.2336 19.9514 25.6177C21.5674 24.0018 22.5679 21.872 22.7799 19.5965L22.2249 18.7075Z" fill="#ECE6F2"/>
<path d="M15.4091 19.5964H17.9631V17.8164H15.4091L15.1221 18.6674L15.4091 19.5964Z" fill="#FF4A4A"/>
<path d="M12.1504 12.4686V16.3376L12.5984 16.6586L13.0464 16.1756L13.6394 14.7666L13.0464 12.4666L12.1504 12.4686Z" fill="#FF9000"/>
<path d="M13.9289 12.4685H13.0469V16.1755L13.4889 16.6575L13.9309 16.3365V12.4685H13.9289Z" fill="#FF4A4A"/>
<path d="M12.1494 8.96748V10.6895H13.0494L13.6424 9.80849L13.0494 8.92749L12.1494 8.96748Z" fill="#404A80"/>
<path d="M13.9289 8.96748L13.0459 8.92749V10.6885H13.9289V8.96748Z" fill="#283366"/>
<path d="M3.2998 17.8174H5.0218V19.5974H3.2998V17.8174Z" fill="#404A80"/>
<path d="M12.1494 26.7246V28.4466C12.4554 28.4736 12.7494 28.4866 13.0494 28.4866L13.6424 27.6056L13.0494 26.7246H12.1494Z" fill="#404A80"/>
<path d="M13.9289 26.7246H13.0469V28.4856C13.3409 28.4856 13.6352 28.4723 13.9299 28.4456L13.9289 26.7246Z" fill="#283366"/>
<path d="M21.0566 17.8174H22.7786V19.5974H21.0566V17.8174Z" fill="#283366"/>
<path d="M10.5078 18.7065C10.5082 19.0394 10.5742 19.3689 10.702 19.6763C10.8297 19.9836 11.0168 20.2628 11.2525 20.4978C11.4882 20.7329 11.7679 20.9192 12.0756 21.0461C12.3833 21.173 12.713 21.2381 13.0458 21.2376L13.6388 18.7065L13.0458 16.1755C12.713 16.175 12.3833 16.2401 12.0756 16.367C11.7679 16.4939 11.4882 16.6802 11.2525 16.9153C11.0168 17.1503 10.8297 17.4295 10.702 17.7368C10.5742 18.0442 10.5082 18.3737 10.5078 18.7065Z" fill="#ECE6F2"/>
<path d="M15.5709 18.7065C15.5701 18.0367 15.3041 17.3945 14.8312 16.9202C14.3582 16.4459 13.7167 16.1782 13.0469 16.1755V21.2375C13.7167 21.2349 14.3582 20.9672 14.8312 20.4929C15.3041 20.0186 15.5701 19.3764 15.5709 18.7065Z" fill="#CFCFE6"/>
</svg>
