<svg width="32" height="32" viewBox="0 0 32 32" fill="none" xmlns="http://www.w3.org/2000/svg">
<path d="M31.0107 15.5105C31.0107 18.5761 30.1017 21.5729 28.3985 24.1218C26.6954 26.6708 24.2746 28.6575 21.4423 29.8306C18.6101 31.0038 15.4936 31.3107 12.4868 30.7127C9.48014 30.1146 6.71831 28.6384 4.55059 26.4707C2.38288 24.3029 0.906648 21.5411 0.308577 18.5344C-0.289494 15.5277 0.0174581 12.4112 1.19062 9.57891C2.36377 6.74665 4.35045 4.32588 6.89941 2.62272C9.44837 0.919557 12.4451 0.010498 15.5107 0.010498C19.6216 0.010498 23.5641 1.64353 26.4709 4.55034C29.3777 7.45716 31.0107 11.3996 31.0107 15.5105Z" fill="url(#paint0_linear_383_1436)"/>
<path d="M23.615 19.7336C23.8558 19.7336 24.0868 19.6379 24.2571 19.4676C24.4273 19.2973 24.523 19.0664 24.523 18.8256V7.83457C24.5219 6.90001 24.1502 6.00402 23.4894 5.34319C22.8286 4.68235 21.9326 4.31063 20.998 4.30957H10.275C9.34044 4.31063 8.44445 4.68235 7.78362 5.34319C7.12278 6.00402 6.75106 6.90001 6.75 7.83457V23.1866C6.75159 24.1208 7.12355 25.0163 7.78432 25.6767C8.4451 26.3371 9.34078 26.7085 10.275 26.7096H20.999C21.9336 26.7085 22.8295 26.3368 23.4904 25.6759C24.1512 25.0151 24.5229 24.1191 24.524 23.1846C24.524 22.9438 24.4283 22.7128 24.258 22.5425C24.0878 22.3722 23.8568 22.2766 23.616 22.2766C23.3752 22.2766 23.1442 22.3722 22.9739 22.5425C22.8037 22.7128 22.708 22.9438 22.708 23.1846C22.7075 23.6377 22.5272 24.072 22.2069 24.3924C21.8865 24.7128 21.4521 24.893 20.999 24.8936H10.275C9.82191 24.893 9.38752 24.7128 9.06714 24.3924C8.74675 24.072 8.56653 23.6377 8.566 23.1846V7.83457C8.56653 7.38148 8.74675 6.94709 9.06714 6.62671C9.38752 6.30632 9.82191 6.1261 10.275 6.12557H20.999C21.4521 6.1261 21.8865 6.30632 22.2069 6.62671C22.5272 6.94709 22.7075 7.38148 22.708 7.83457V18.8256C22.708 19.0662 22.8035 19.297 22.9736 19.4673C23.1437 19.6375 23.3744 19.7333 23.615 19.7336Z" fill="white"/>
<path d="M18.817 18.1635C19.0579 18.1635 19.2888 18.0679 19.4591 17.8976C19.6294 17.7273 19.7251 17.4964 19.7251 17.2556V16.4195H20.5611C20.8019 16.4195 21.0328 16.3239 21.2031 16.1536C21.3734 15.9833 21.4691 15.7524 21.4691 15.5116C21.4691 15.2707 21.3734 15.0398 21.2031 14.8695C21.0328 14.6992 20.8019 14.6035 20.5611 14.6035H19.7251V13.7706C19.7251 13.5297 19.6294 13.2988 19.4591 13.1285C19.2888 12.9582 19.0579 12.8625 18.817 12.8625C18.5762 12.8625 18.3453 12.9582 18.175 13.1285C18.0047 13.2988 17.9091 13.5297 17.9091 13.7706V14.6066H17.0721C16.8312 14.6066 16.6003 14.7022 16.43 14.8725C16.2597 15.0428 16.1641 15.2737 16.1641 15.5145C16.1641 15.7554 16.2597 15.9863 16.43 16.1566C16.6003 16.3269 16.8312 16.4225 17.0721 16.4225H17.9091V17.2585C17.9099 17.4988 18.0059 17.729 18.1761 17.8987C18.3463 18.0683 18.5767 18.1635 18.817 18.1635Z" fill="white"/>
<path d="M14.1929 19.1667C14.4337 19.1667 14.6647 19.071 14.8349 18.9007C15.0052 18.7305 15.1009 18.4995 15.1009 18.2587V14.5517C15.0874 13.8571 14.802 13.1955 14.306 12.7091C13.8101 12.2227 13.1431 11.9502 12.4484 11.9502C11.7537 11.9502 11.0867 12.2227 10.5907 12.7091C10.0948 13.1955 9.80939 13.8571 9.7959 14.5517V18.2587C9.7959 18.4995 9.89156 18.7305 10.0618 18.9007C10.2321 19.071 10.4631 19.1667 10.7039 19.1667C10.9447 19.1667 11.1757 19.071 11.3459 18.9007C11.5162 18.7305 11.6119 18.4995 11.6119 18.2587V17.0297H13.2849V18.2587C13.2849 18.4995 13.3806 18.7305 13.5508 18.9007C13.7211 19.071 13.9521 19.1667 14.1929 19.1667ZM11.6119 15.2127V14.5507C11.6119 14.3288 11.7 14.1161 11.8569 13.9592C12.0138 13.8023 12.2265 13.7142 12.4484 13.7142C12.6702 13.7142 12.883 13.8023 13.0399 13.9592C13.1968 14.1161 13.2849 14.3288 13.2849 14.5507V15.2127H11.6119Z" fill="white"/>
<defs>
<linearGradient id="paint0_linear_383_1436" x1="0.0107422" y1="-933.245" x2="31.0107" y2="-933.245" gradientUnits="userSpaceOnUse">
<stop stop-color="#0FA0A8"/>
<stop offset="0.197" stop-color="#004F5D"/>
<stop offset="0.514" stop-color="#035976"/>
<stop offset="0.777" stop-color="#00334A"/>
<stop offset="1" stop-color="#074867"/>
</linearGradient>
</defs>
</svg>
