<svg width="24" height="24" viewBox="0 0 24 24" fill="none" xmlns="http://www.w3.org/2000/svg">
<path d="M22.5769 13.9076L21.5785 13.0857C20.8946 12.5227 20.8958 11.4762 21.5785 10.9143L22.5769 10.0924C23.2874 9.50747 23.4691 8.50444 23.009 7.70733L21.0375 4.29267C20.5773 3.49561 19.6176 3.15155 18.756 3.47433L17.5449 3.92803C16.7154 4.23872 15.8098 3.7147 15.6645 2.84236L15.4519 1.5667C15.3006 0.658922 14.5228 0 13.6024 0H9.65953C8.73914 0 7.9613 0.658922 7.81003 1.56675L7.59741 2.84236C7.45177 3.71625 6.54492 4.2382 5.71697 3.92808L4.50595 3.47433C3.64425 3.15155 2.68462 3.49566 2.22436 4.29267L0.252937 7.70728C-0.207235 8.5043 -0.0255478 9.50737 0.68503 10.0924L1.68342 10.9143C2.36742 11.4773 2.36606 12.5237 1.68342 13.0856L0.684983 13.9075C-0.0255477 14.4925 -0.207282 15.4956 0.25289 16.2926L2.22436 19.7073C2.68458 20.5043 3.64401 20.8484 4.50595 20.5256L5.71692 20.0719C6.54656 19.7611 7.452 20.2855 7.59736 21.1576L7.80998 22.4332C7.9613 23.3411 8.73914 24 9.65948 24H13.6024C14.5227 24 15.3006 23.3411 15.4518 22.4333L15.6644 21.1577C15.81 20.284 16.7168 19.7617 17.5449 20.072L18.756 20.5257C19.6178 20.8485 20.5773 20.5044 21.0375 19.7073L23.0091 16.2926C23.4691 15.4956 23.2874 14.4925 22.5769 13.9076ZM19.4137 18.7698L18.2027 18.3161C16.2668 17.5909 14.1541 18.8144 13.815 20.8494L13.6024 22.125H9.65953L9.44691 20.8494C9.10711 18.8105 6.99131 17.5923 5.05917 18.3161L3.84816 18.7698L1.87673 15.3552L2.87512 14.5333C4.47117 13.2194 4.46784 10.7779 2.87512 9.46673L1.87673 8.64483L3.8482 5.23017L5.05917 5.68388C6.99511 6.40903 9.10777 5.18559 9.44691 3.15061L9.65948 1.875H13.6024L13.815 3.15061C14.1548 5.18977 16.2707 6.40753 18.2027 5.68388L19.4137 5.23017L21.3856 8.64436C21.3856 8.64436 21.3855 8.6445 21.3851 8.64478L20.3867 9.46669C18.7907 10.7805 18.7939 13.222 20.3867 14.5332L21.3851 15.3551L19.4137 18.7698ZM11.631 7.37498C9.08072 7.37498 7.00594 9.44977 7.00594 12C7.00594 14.5502 9.08072 16.625 11.631 16.625C14.1812 16.625 16.256 14.5502 16.256 12C16.256 9.44977 14.1812 7.37498 11.631 7.37498ZM11.631 14.75C10.1146 14.75 8.88094 13.5164 8.88094 12C8.88094 10.4836 10.1146 9.24998 11.631 9.24998C13.1473 9.24998 14.381 10.4836 14.381 12C14.381 13.5164 13.1473 14.75 11.631 14.75Z" fill="#9F70E9"/>
</svg>
