<svg width="23" height="14" viewBox="0 0 23 14" fill="none" xmlns="http://www.w3.org/2000/svg">
<path d="M11.2 14C3.87222 14 0.239225 7.6118 0.0882 7.34002C-0.0294 7.12845 -0.0294 6.87137 0.0882 6.6598C0.239225 6.3882 3.87222 0 11.2 0C18.5278 0 22.1608 6.3882 22.3118 6.65997C22.4294 6.87155 22.4294 7.12862 22.3118 7.3402C22.1608 7.6118 18.5278 14 11.2 14ZM1.52372 6.99895C2.35637 8.26087 5.62555 12.6 11.2 12.6C16.7921 12.6 20.0468 8.26437 20.8763 7.00105C20.0436 5.73912 16.7744 1.4 11.2 1.4C5.60787 1.4 2.35322 5.73562 1.52372 6.99895ZM11.2 11.2C8.88405 11.2 7 9.31595 7 7C7 4.68405 8.88405 2.8 11.2 2.8C13.5159 2.8 15.4 4.68405 15.4 7C15.4 9.31595 13.5159 11.2 11.2 11.2ZM11.2 4.2C9.65615 4.2 8.4 5.45615 8.4 7C8.4 8.54385 9.65615 9.8 11.2 9.8C12.7438 9.8 14 8.54385 14 7C14 5.45615 12.7438 4.2 11.2 4.2Z" fill="#655F5F"/>
</svg>
