<svg width="34" height="33" viewBox="0 0 34 33" fill="none" xmlns="http://www.w3.org/2000/svg">
<path d="M16.5391 33C25.6518 33 33.0391 25.6127 33.0391 16.5C33.0391 7.3873 25.6518 0 16.5391 0C7.42636 0 0.0390625 7.3873 0.0390625 16.5C0.0390625 25.6127 7.42636 33 16.5391 33Z" fill="white"/>
<path d="M16.543 22.9991C16.3587 23.0002 16.1781 22.9464 16.0245 22.8445C15.8708 22.7426 15.751 22.5972 15.6803 22.427C15.6096 22.2567 15.5912 22.0692 15.6275 21.8885C15.6638 21.7077 15.7531 21.5419 15.884 21.4121L20.804 16.5011L15.884 11.5901C15.7305 11.4127 15.6498 11.1838 15.6582 10.9493C15.6667 10.7149 15.7636 10.4924 15.9295 10.3265C16.0953 10.1606 16.3179 10.0637 16.5523 10.0553C16.7867 10.0469 17.0157 10.1275 17.193 10.2811L22.763 15.8511C22.936 16.0249 23.0331 16.2603 23.0331 16.5056C23.0331 16.7508 22.936 16.9862 22.763 17.1601L17.193 22.7301C17.02 22.9015 16.7866 22.9982 16.543 22.9991Z" fill="#FE6C6C"/>
<path d="M10.9727 23.004C10.7883 23.0052 10.6078 22.9514 10.4542 22.8495C10.3005 22.7476 10.1807 22.6022 10.11 22.432C10.0393 22.2617 10.0209 22.0742 10.0572 21.8935C10.0935 21.7127 10.1828 21.5468 10.3137 21.417L15.2337 16.506L10.3137 11.591C10.1414 11.4158 10.0452 11.1795 10.0463 10.9337C10.0473 10.6879 10.1454 10.4524 10.3192 10.2786C10.4931 10.1048 10.7285 10.0067 10.9743 10.0056C11.2201 10.0046 11.4564 10.1007 11.6317 10.273L17.2017 15.843C17.3747 16.0169 17.4718 16.2523 17.4718 16.4975C17.4718 16.7428 17.3747 16.9782 17.2017 17.152L11.6317 22.722C11.546 22.8104 11.4437 22.8808 11.3305 22.9292C11.2174 22.9777 11.0958 23.0031 10.9727 23.004Z" fill="#FE6C6C"/>
</svg>
