<svg width="14" height="12" viewBox="0 0 14 12" fill="none" xmlns="http://www.w3.org/2000/svg">
<path d="M4.99967 0C4.11562 0 3.26777 0.351189 2.64265 0.976311C2.01753 1.60143 1.66634 2.44928 1.66634 3.33333C1.66634 4.21739 2.01753 5.06523 2.64265 5.69036C3.26777 6.31548 4.11562 6.66667 4.99967 6.66667C5.88373 6.66667 6.73158 6.31548 7.3567 5.69036C7.98182 5.06523 8.33301 4.21739 8.33301 3.33333C8.33301 2.44928 7.98182 1.60143 7.3567 0.976311C6.73158 0.351189 5.88373 0 4.99967 0ZM2.99967 3.33333C2.99967 2.8029 3.21039 2.29419 3.58546 1.91912C3.96053 1.54405 4.46924 1.33333 4.99967 1.33333C5.53011 1.33333 6.03882 1.54405 6.41389 1.91912C6.78896 2.29419 6.99967 2.8029 6.99967 3.33333C6.99967 3.86377 6.78896 4.37247 6.41389 4.74755C6.03882 5.12262 5.53011 5.33333 4.99967 5.33333C4.46924 5.33333 3.96053 5.12262 3.58546 4.74755C3.21039 4.37247 2.99967 3.86377 2.99967 3.33333ZM10.2717 3.47867C10.0842 3.38314 9.87676 3.33333 9.66634 3.33333V2C10.0874 2.00003 10.5024 2.09974 10.8775 2.29098C11.2525 2.48222 11.577 2.75955 11.8243 3.10028C12.0716 3.44101 12.2347 3.83545 12.3003 4.25133C12.3659 4.6672 12.332 5.0927 12.2016 5.49299C12.0711 5.89328 11.8477 6.25699 11.5497 6.55437C11.2517 6.85174 10.8875 7.07432 10.4869 7.2039C10.0863 7.33347 9.66073 7.36636 9.245 7.29987C8.82927 7.23337 8.43519 7.06939 8.09501 6.82133L8.88034 5.744C9.02902 5.85221 9.19848 5.92849 9.37806 5.96806C9.55765 6.00762 9.74347 6.00961 9.92386 5.9739C10.1043 5.93819 10.2753 5.86555 10.4263 5.76055C10.5772 5.65555 10.7048 5.52046 10.8011 5.36376C10.8973 5.20707 10.9601 5.03216 10.9855 4.85003C11.0109 4.6679 10.9983 4.48248 10.9486 4.30544C10.8989 4.1284 10.8131 3.96356 10.6966 3.82128C10.5801 3.67899 10.4354 3.56235 10.2717 3.47867ZM12.3317 12C12.3315 11.2932 12.0506 10.6153 11.5508 10.1155C11.051 9.61571 10.3732 9.33484 9.66634 9.33467V8C10.7272 8.00018 11.7445 8.42166 12.4946 9.17177C13.2447 9.92188 13.6662 10.9392 13.6663 12H12.3317ZM9.66634 12H8.33301C8.33301 11.1159 7.98182 10.2681 7.3567 9.64298C6.73158 9.01786 5.88373 8.66667 4.99967 8.66667C4.11562 8.66667 3.26777 9.01786 2.64265 9.64298C2.01753 10.2681 1.66634 11.1159 1.66634 12H0.333008C0.333008 10.7623 0.824673 9.57534 1.69984 8.70017C2.57501 7.825 3.762 7.33333 4.99967 7.33333C6.23735 7.33333 7.42434 7.825 8.29951 8.70017C9.17467 9.57534 9.66634 10.7623 9.66634 12Z" fill="#F77E23"/>
</svg>
