<svg width="21" height="24" viewBox="0 0 21 24" fill="none" xmlns="http://www.w3.org/2000/svg">
<path d="M17.296 12.1671C17.2103 12.0796 17.1081 12.0099 16.9953 11.9623C16.8824 11.9146 16.7612 11.8899 16.6387 11.8896C16.5162 11.8893 16.3949 11.9133 16.2817 11.9603C16.1686 12.0074 16.066 12.0765 15.9799 12.1636C15.8937 12.2507 15.8258 12.354 15.78 12.4677C15.7342 12.5813 15.7115 12.7029 15.7132 12.8254C15.7149 12.9479 15.7409 13.0688 15.7898 13.1811C15.8387 13.2934 15.9095 13.3949 15.998 13.4796C16.7811 14.2502 17.4025 15.1695 17.8255 16.1835C18.2486 17.1975 18.4648 18.2858 18.4616 19.3845C18.4616 20.5135 15.2254 22.1537 10.1539 22.1537C5.08241 22.1537 1.8462 20.5127 1.8462 19.3827C1.84309 18.2915 2.05645 17.2105 2.47392 16.2024C2.8914 15.1942 3.5047 14.2789 4.27832 13.5094C4.36582 13.4241 4.43551 13.3222 4.48335 13.2098C4.53118 13.0973 4.55621 12.9765 4.55699 12.8543C4.55776 12.7321 4.53426 12.611 4.48786 12.4979C4.44145 12.3849 4.37306 12.2822 4.28664 12.1957C4.20023 12.1093 4.09752 12.0409 3.98447 11.9945C3.87142 11.9481 3.75028 11.9246 3.62808 11.9254C3.50588 11.9262 3.38505 11.9512 3.27259 11.999C3.16014 12.0469 3.05831 12.1166 2.973 12.2041C2.02723 13.1449 1.27749 14.2639 0.767179 15.4965C0.256866 16.729 -0.00387773 18.0505 4.35799e-05 19.3845C4.35799e-05 22.3823 5.23112 23.9999 10.1539 23.9999C15.0767 23.9999 20.3077 22.3823 20.3077 19.3845C20.3118 18.0415 20.0475 16.7113 19.5303 15.4718C19.0131 14.2324 18.2535 13.1089 17.296 12.1671Z" fill="#9F70E9"/>
<path d="M10.1539 12.9231C11.4319 12.9231 12.6812 12.5441 13.7438 11.8341C14.8064 11.1241 15.6345 10.115 16.1236 8.93426C16.6127 7.75357 16.7406 6.45437 16.4913 5.20096C16.242 3.94754 15.6266 2.79621 14.7229 1.89254C13.8193 0.988881 12.6679 0.373479 11.4145 0.12416C10.1611 -0.12516 8.86189 0.00279968 7.6812 0.491858C6.50051 0.980917 5.49135 1.80911 4.78135 2.8717C4.07135 3.9343 3.69238 5.18357 3.69238 6.46154C3.69436 8.17464 4.37576 9.81701 5.58711 11.0284C6.79845 12.2397 8.44082 12.9211 10.1539 12.9231ZM10.1539 1.84616C11.0668 1.84616 11.9591 2.11684 12.7181 2.62399C13.4771 3.13113 14.0687 3.85196 14.418 4.69531C14.7673 5.53866 14.8587 6.46666 14.6806 7.36196C14.5025 8.25725 14.063 9.07964 13.4175 9.72511C12.772 10.3706 11.9496 10.8102 11.0543 10.9882C10.159 11.1663 9.23104 11.0749 8.38769 10.7256C7.54434 10.3763 6.82351 9.78471 6.31637 9.02571C5.80922 8.26671 5.53854 7.37438 5.53854 6.46154C5.53998 5.23791 6.0267 4.0648 6.89194 3.19956C7.75718 2.33432 8.93029 1.8476 10.1539 1.84616Z" fill="#9F70E9"/>
</svg>
